<svg 
  viewBox="0 0 100 50.5" 
  xmlns="http://www.w3.org/2000/svg"
  fill="currentColor">
  <g transform="translate(-56.141621,-150.18854)">
    <path d="m 66.379559,150.18853 -10.237934,5.9105 v 27.71046 h 10.241267 v -5.85901 l 1.649355,-1.74893 6.006694,7.60794 H 86.409108 L 75.354785,169.7568 85.594388,159.02437 H 73.496341 l -7.113449,7.1898 v -16.02564 z m 31.765839,0 -10.24127,5.9138 v 27.70716 h 10.24127 z m 15.630702,8.38287 c -1.93324,0 -3.91146,0.2418 -5.93534,0.72509 -2.02385,0.48331 -3.76032,1.17791 -5.21023,2.08411 l 3.26218,6.75175 c 0.81559,-0.60415 1.79744,-1.07318 2.94528,-1.40546 1.14787,-0.36248 2.28062,-0.54258 3.39826,-0.54258 1.66139,0 2.85419,0.31644 3.57917,0.95078 0.57501,0.48303 0.93142,1.13217 1.06856,1.94802 h -4.10347 c -2.56755,0 -4.69841,0.28725 -6.39001,0.86119 -1.66135,0.57394 -2.8996,1.41944 -3.71516,2.53709 -0.81561,1.11764 -1.22293,2.47762 -1.22293,4.0786 0,1.4197 0.34728,2.71796 1.04206,3.89603 0.69474,1.14786 1.72204,2.06967 3.08131,2.76442 1.35934,0.69476 3.05034,1.04205 5.07418,1.04205 2.14469,0 3.85194,-0.45277 5.12063,-1.35898 0.81516,-0.58225 1.44971,-1.3575 1.90322,-2.32636 v 3.23234 h 9.51451 v -13.32095 c 0,-4.13833 -1.17825,-7.15846 -3.53434,-9.06148 -2.32593,-1.90303 -5.61874,-2.85566 -9.87788,-2.85566 z m 28.95332,0 c -1.93324,0 -3.91153,0.2418 -5.93534,0.72509 -2.02389,0.48331 -3.76035,1.17791 -5.21025,2.08411 l 3.26221,6.75175 c 0.81559,-0.60415 1.7974,-1.07318 2.94527,-1.40546 1.14784,-0.36248 2.28061,-0.54258 3.39828,-0.54258 1.66134,0 2.85416,0.31644 3.57912,0.95078 0.57506,0.48303 0.93142,1.13217 1.06859,1.94802 h -4.1035 c -2.56757,0 -4.69841,0.28725 -6.39,0.86119 -1.66134,0.57394 -2.89957,1.41944 -3.71517,2.53709 -0.81559,1.11764 -1.22293,2.47762 -1.22293,4.0786 0,1.4197 0.3473,2.71796 1.04205,3.89603 0.69476,1.14786 1.72204,2.06967 3.08132,2.76442 1.35935,0.69476 3.05034,1.04205 5.0742,1.04205 2.14469,0 3.85193,-0.45277 5.12062,-1.35898 0.81516,-0.58225 1.44971,-1.3575 1.90323,-2.32636 v 3.23234 h 9.51449 v -13.32095 c 0,-4.13833 -1.17818,-7.15846 -3.53432,-9.06148 -2.32593,-1.90303 -5.61874,-2.85566 -9.87787,-2.85566 z m -28.3178,15.45149 h 2.5371 v 1.72071 c -0.27187,0.81558 -0.71006,1.42093 -1.31418,1.81361 -0.57394,0.36248 -1.20848,0.54259 -1.90323,0.54259 -0.75519,0 -1.35886,-0.18011 -1.81198,-0.54259 -0.42288,-0.39268 -0.63385,-0.87629 -0.63385,-1.45023 0,-0.69475 0.24014,-1.20923 0.72346,-1.54151 0.51351,-0.36248 1.31525,-0.54258 2.40268,-0.54258 z m 28.95329,0 h 2.53712 v 1.72071 c -0.27187,0.81558 -0.71003,1.42093 -1.3142,1.81361 -0.57391,0.36248 -1.20847,0.54259 -1.90324,0.54259 -0.75518,0 -1.35884,-0.18011 -1.81195,-0.54259 -0.42289,-0.39268 -0.63554,-0.87629 -0.63554,-1.45023 0,-0.69475 0.24182,-1.20923 0.72515,-1.54151 0.51351,-0.36248 1.31525,-0.54258 2.40266,-0.54258 z" />
    <path d="m 56.485968,200.52596 v -9.74991 h 2.82711 v 9.74991 z m 1.413555,-11.1091 q -0.779267,0 -1.268575,-0.45306 -0.489307,-0.45306 -0.489307,-1.12359 0,-0.67054 0.489307,-1.1236 0.489308,-0.45306 1.268575,-0.45306 0.779268,0 1.268575,0.43494 0.489308,0.41682 0.489308,1.08735 0,0.70678 -0.489308,1.17796 -0.471185,0.45306 -1.268575,0.45306 z m 4.041329,11.1091 v -9.74991 h 2.700252 v 2.70025 l -0.50743,-0.81551 q 0.525553,-0.97861 1.504167,-1.50417 0.978615,-0.52555 2.229068,-0.52555 1.15984,0 2.065965,0.47119 0.924247,0.45306 1.4498,1.41355 0.525552,0.94237 0.525552,2.42842 v 5.58173 h -2.82711 v -5.14679 q 0,-1.17797 -0.525552,-1.73976 -0.50743,-0.5618 -1.4498,-0.5618 -0.670533,0 -1.214208,0.28996 -0.525552,0.27184 -0.833635,0.85176 -0.289959,0.57992 -0.289959,1.48604 v 4.82059 z m 16.509596,0.14498 q -1.721638,0 -2.68213,-0.86988 -0.960492,-0.88801 -0.960492,-2.62777 v -8.55382 h 2.827109 v 8.51758 q 0,0.61616 0.326205,0.96049 0.326205,0.32621 0.888003,0.32621 0.670532,0 1.141717,-0.36245 l 0.761145,1.99347 q -0.43494,0.30808 -1.051105,0.47119 -0.598042,0.14498 -1.250452,0.14498 z m -5.14679,-7.72019 v -2.1747 h 6.759692 v 2.1747 z m 13.573739,7.72019 q -1.66727,0 -2.935845,-0.65241 -1.250453,-0.65241 -1.939107,-1.77601 -0.688655,-1.14172 -0.688655,-2.59152 0,-1.46792 0.670532,-2.59151 0.688655,-1.14172 1.866617,-1.77601 1.177963,-0.65241 2.664008,-0.65241 1.431677,0 2.573395,0.61617 1.15984,0.59804 1.830372,1.73976 0.670533,1.12359 0.670533,2.70025 0,0.1631 -0.01812,0.38057 -0.01812,0.19935 -0.03624,0.38057 h -7.919532 v -1.64914 h 6.433487 l -1.08735,0.4893 q 0,-0.76114 -0.308082,-1.32294 -0.308083,-0.5618 -0.851758,-0.86988 -0.543675,-0.3262 -1.268575,-0.3262 -0.7249,0 -1.286697,0.3262 -0.543675,0.30808 -0.851758,0.888 -0.308082,0.5618 -0.308082,1.34107 v 0.43494 q 0,0.79739 0.344327,1.41355 0.36245,0.59805 0.996738,0.92425 0.65241,0.30808 1.52229,0.30808 0.779267,0 1.359187,-0.23559 0.598043,-0.23559 1.08735,-0.70678 l 1.504168,1.63103 q -0.670533,0.76114 -1.685393,1.17796 -1.01486,0.3987 -2.337802,0.3987 z m 6.596601,-0.14498 v -9.74991 h 2.700252 v 2.75462 l -0.380572,-0.79739 q 0.43494,-1.03298 1.395432,-1.55853 0.960493,-0.54368 2.337803,-0.54368 v 2.60964 q -0.181225,-0.0181 -0.326205,-0.0181 -0.14498,-0.0181 -0.308083,-0.0181 -1.15984,0 -1.88474,0.67053 -0.706777,0.65241 -0.706777,2.04784 v 4.60312 z m 13.084452,0 v -1.90287 l -0.18123,-0.41681 v -3.40703 q 0,-0.90613 -0.5618,-1.41356 -0.54367,-0.50743 -1.68539,-0.50743 -0.77927,0 -1.54041,0.25372 -0.74302,0.23559 -1.26858,0.65241 l -1.01486,-1.97536 q 0.79739,-0.56179 1.92099,-0.86988 1.12359,-0.30808 2.28343,-0.30808 2.22907,0 3.4614,1.05111 1.23233,1.0511 1.23233,3.28017 v 5.56361 z m -2.97209,0.14498 q -1.14172,0 -1.95723,-0.38058 -0.81552,-0.39869 -1.25046,-1.06922 -0.434937,-0.67054 -0.434937,-1.50417 0,-0.86988 0.416817,-1.52229 0.43494,-0.65241 1.35919,-1.01486 0.92425,-0.38057 2.41029,-0.38057 h 2.59152 v 1.64914 h -2.28344 q -0.99673,0 -1.37731,0.32621 -0.36245,0.3262 -0.36245,0.81551 0,0.54368 0.41682,0.86988 0.43494,0.30808 1.17796,0.30808 0.70678,0 1.26858,-0.3262 0.5618,-0.34433 0.81551,-0.99674 l 0.43494,1.30482 q -0.30808,0.94237 -1.12359,1.43168 -0.81552,0.48931 -2.10221,0.48931 z m 12.95759,0 q -1.57666,0 -2.80899,-0.63429 -1.23233,-0.65241 -1.93911,-1.79413 -0.68865,-1.14172 -0.68865,-2.59152 0,-1.46792 0.68865,-2.59151 0.70678,-1.14172 1.93911,-1.77601 1.23233,-0.65241 2.80899,-0.65241 1.54041,0 2.68213,0.65241 1.14172,0.63429 1.68539,1.83037 l -2.19282,1.17797 q -0.38057,-0.68866 -0.96049,-1.01486 -0.5618,-0.32621 -1.23233,-0.32621 -0.7249,0 -1.30482,0.32621 -0.57992,0.3262 -0.92425,0.92424 -0.32621,0.59805 -0.32621,1.4498 0,0.85176 0.32621,1.4498 0.34433,0.59805 0.92425,0.92425 0.57992,0.32621 1.30482,0.32621 0.67053,0 1.23233,-0.30809 0.57992,-0.3262 0.96049,-1.03298 l 2.19282,1.19609 q -0.54367,1.17796 -1.68539,1.83037 -1.14172,0.63429 -2.68213,0.63429 z m 10.13045,0 q -1.72163,0 -2.68213,-0.86988 -0.96049,-0.88801 -0.96049,-2.62777 v -8.55382 h 2.82711 v 8.51758 q 0,0.61616 0.32621,0.96049 0.3262,0.32621 0.888,0.32621 0.67053,0 1.14172,-0.36245 l 0.76114,1.99347 q -0.43494,0.30808 -1.0511,0.47119 -0.59805,0.14498 -1.25046,0.14498 z m -5.14679,-7.72019 v -2.1747 h 6.7597 v 2.1747 z m 9.04312,7.57521 v -9.74991 h 2.82711 v 9.74991 z m 1.41356,-11.1091 q -0.77927,0 -1.26858,-0.45306 -0.48931,-0.45306 -0.48931,-1.12359 0,-0.67054 0.48931,-1.1236 0.48931,-0.45306 1.26858,-0.45306 0.77926,0 1.26857,0.43494 0.48931,0.41682 0.48931,1.08735 0,0.70678 -0.48931,1.17796 -0.47118,0.45306 -1.26857,0.45306 z m 6.68721,11.1091 -4.09568,-9.74991 h 2.91772 l 3.40703,8.39072 h -1.4498 l 3.53389,-8.39072 h 2.71837 l -4.1138,9.74991 z m 12.75825,0.14498 q -1.66727,0 -2.93585,-0.65241 -1.25045,-0.65241 -1.9391,-1.77601 -0.68866,-1.14172 -0.68866,-2.59152 0,-1.46792 0.67053,-2.59151 0.68866,-1.14172 1.86662,-1.77601 1.17796,-0.65241 2.66401,-0.65241 1.43168,0 2.57339,0.61617 1.15984,0.59804 1.83038,1.73976 0.67053,1.12359 0.67053,2.70025 0,0.1631 -0.0181,0.38057 -0.0181,0.19935 -0.0362,0.38057 h -7.91953 v -1.64914 h 6.43349 l -1.08735,0.4893 q 0,-0.76114 -0.30809,-1.32294 -0.30808,-0.5618 -0.85175,-0.86988 -0.54368,-0.3262 -1.26858,-0.3262 -0.7249,0 -1.2867,0.3262 -0.54367,0.30808 -0.85175,0.888 -0.30809,0.5618 -0.30809,1.34107 v 0.43494 q 0,0.79739 0.34433,1.41355 0.36245,0.59805 0.99674,0.92425 0.65241,0.30808 1.52229,0.30808 0.77927,0 1.35919,-0.23559 0.59804,-0.23559 1.08735,-0.70678 l 1.50416,1.63103 q -0.67053,0.76114 -1.68539,1.17796 -1.01486,0.3987 -2.3378,0.3987 z" aria-label="interactive" />
  </g>
</svg>